HIERARCHY
ROOT Hips
{
	OFFSET 0.000000 0.000000 0.000000
	CHANNELS 6 Xposition Yposition Zposition Zrotation Yrotation Xrotation 
	JOINT LeftUpLeg_virtual
	{
		OFFSET 0.000000 0.000000 0.000000
		CHANNELS 3 Zrotation Yrotation Xrotation
		JOINT LeftUpLeg
		{
			OFFSET 8.479694 -4.795517 -0.379053
			CHANNELS 3 Zrotation Yrotation Xrotation
			JOINT LeftLeg
			{
				OFFSET 0.485052 -32.551468 0.112863
				CHANNELS 3 Zrotation Yrotation Xrotation
				JOINT LeftFoot
				{
					OFFSET 0.438033 -32.635670 -3.012641
					CHANNELS 3 Zrotation Yrotation Xrotation
					JOINT LeftToeBase
					{
						OFFSET 0.970169 -13.225353 11.864223
						CHANNELS 3 Zrotation Yrotation Xrotation
						End Site
						{
							OFFSET 0.000000 0.000000 0.000000
						}
					}
				}
			}
		}
	}
	JOINT RightUpLeg_virtual
	{
		OFFSET 0.000000 0.000000 0.000000
		CHANNELS 3 Zrotation Yrotation Xrotation
		JOINT RightUpLeg
		{
			OFFSET -8.479694 -4.795517 -0.379053
			CHANNELS 3 Zrotation Yrotation Xrotation
			JOINT RightLeg
			{
				OFFSET -0.484100 -32.551483 0.112903
				CHANNELS 3 Zrotation Yrotation Xrotation
				JOINT RightFoot
				{
					OFFSET -0.438985 -32.635651 -3.012681
					CHANNELS 3 Zrotation Yrotation Xrotation
					JOINT RightToeBase
					{
						OFFSET -0.970169 -13.225354 11.864223
						CHANNELS 3 Zrotation Yrotation Xrotation
						End Site
						{
							OFFSET 0.000000 0.000000 0.000000
						}
					}
				}
			}
		}
	}
	JOINT Spine_virtual
	{
		OFFSET 0.000000 0.000000 0.000000
		CHANNELS 3 Zrotation Yrotation Xrotation
		JOINT Spine
		{
			OFFSET 0.000000 7.722015 1.166203
			CHANNELS 3 Zrotation Yrotation Xrotation
			JOINT Spine1
			{
				OFFSET 0.000000 12.024086 0.248766
				CHANNELS 3 Zrotation Yrotation Xrotation
				JOINT Spine2
				{
					OFFSET -0.000000 11.503036 -0.491240
					CHANNELS 3 Zrotation Yrotation Xrotation
					JOINT Neck_virtual
					{
						OFFSET 0.000000 0.000000 0.000000
						CHANNELS 3 Zrotation Yrotation Xrotation
						JOINT Neck
						{
							OFFSET 0.000000 18.430687 -3.123054
							CHANNELS 3 Zrotation Yrotation Xrotation
							JOINT Head
							{
								OFFSET -0.000000 9.051071 1.034021
								CHANNELS 3 Zrotation Yrotation Xrotation
								End Site
								{
									OFFSET 0.000000 0.000000 0.000000
								}
							}
						}
					}
					JOINT LeftShoulder_virtual
					{
						OFFSET 0.000000 0.000000 0.000000
						CHANNELS 3 Zrotation Yrotation Xrotation
						JOINT LeftShoulder
						{
							OFFSET 6.197824 13.665230 -4.064723
							CHANNELS 3 Zrotation Yrotation Xrotation
							JOINT LeftArm
							{
								OFFSET 7.778132 -0.187073 -1.709282
								CHANNELS 3 Zrotation Yrotation Xrotation
								JOINT LeftForeArm
								{
									OFFSET 21.954697 0.000000 -2.041093
									CHANNELS 3 Zrotation Yrotation Xrotation
									JOINT LeftHand
									{
										OFFSET 22.992908 0.000000 -0.870901
										CHANNELS 3 Zrotation Yrotation Xrotation
										End Site
										{
											OFFSET 0.000000 0.000000 0.000000
										}
									}
								}
							}
						}
					}
					JOINT RightShoulder_virtual
					{
						OFFSET 0.000000 0.000000 0.000000
						CHANNELS 3 Zrotation Yrotation Xrotation
						JOINT RightShoulder
						{
							OFFSET -6.197824 13.665230 -4.064723
							CHANNELS 3 Zrotation Yrotation Xrotation
							JOINT RightArm
							{
								OFFSET -7.778132 -0.187073 -1.709282
								CHANNELS 3 Zrotation Yrotation Xrotation
								JOINT RightForeArm
								{
									OFFSET -21.954697 0.000000 -2.041093
									CHANNELS 3 Zrotation Yrotation Xrotation
									JOINT RightHand
									{
										OFFSET -22.992908 0.000000 -0.870901
										CHANNELS 3 Zrotation Yrotation Xrotation
										End Site
										{
											OFFSET 0.000000 0.000000 0.000000
										}
									}
								}
							}
						}
					}
				}
			}
		}
	}
}
MOTION
Frames: 5
Frame Time: 0.033333
3.885370 81.732880 15.524458 -179.928561 5.513276 -179.991686 -4.638533 -0.163112 11.833900 -1.427818 -0.453788 -25.640730 5.631351 4.847247 25.397628 -3.155197 -7.197557 -8.396640 0.000000 0.000000 0.000000 -0.539112 -1.494444 11.567731 1.940435 -2.124201 -19.235015 0.242945 4.188536 26.320735 8.990405 8.409865 -6.244691 0.000000 0.000000 0.000000 2.758659 2.109692 0.405412 -5.568015 0.252860 0.339110 0.967175 -3.159937 3.502239 -0.023139 0.046431 -0.003557 0.614731 -2.049579 4.168390 0.614682 1.014853 -17.050116 0.000000 0.000000 0.000000 1.916250 -1.188371 1.646538 8.095323 1.785558 -5.095024 -21.178294 10.649154 -42.063225 -7.164839 -21.332972 -6.821610 0.000000 0.000000 0.000000 -1.761424 -0.021147 1.102905 8.621609 -9.838736 -6.029932 13.714514 -12.081635 -43.846502 -1.436957 24.920963 -4.313807 0.000000 0.000000 0.000000 
3.865081 81.734169 15.534929 179.985648 5.526899 179.946948 -4.741119 -0.120075 11.816716 -1.530159 -0.181941 -25.577472 5.653942 5.089156 25.508390 -3.088806 -6.947373 -8.520834 0.000000 0.000000 0.000000 -0.452587 -1.384493 11.490755 2.019143 -2.184937 -19.265139 0.589572 4.380105 26.726445 9.404084 8.765779 -5.604203 0.000000 0.000000 0.000000 2.669536 2.085588 0.466826 -5.607429 0.222932 0.381889 0.972818 -3.193543 3.492813 0.042085 0.017664 -0.039298 0.588794 -2.053774 4.186253 0.644661 1.040919 -17.030358 0.000000 0.000000 0.000000 1.897166 -1.089453 1.670577 8.119061 1.878877 -5.118167 -21.208637 10.712224 -41.991624 -7.090481 -21.373137 -6.892597 0.000000 0.000000 0.000000 -1.751452 0.013857 1.180272 8.614441 -9.807045 -6.085039 13.760748 -12.047394 -43.812590 -1.413368 25.077133 -4.320964 0.000000 0.000000 0.000000 
3.855344 81.727829 15.540636 179.976127 5.493600 179.995046 -4.744030 -0.230608 11.748205 -1.568967 -0.174592 -25.609125 5.619842 5.063802 25.524752 -2.949597 -6.993615 -8.552458 0.000000 0.000000 0.000000 -0.445501 -1.387371 11.444598 2.014784 -2.263878 -19.303583 0.589318 4.377203 26.812241 9.426238 8.764603 -5.609478 0.000000 0.000000 0.000000 2.664381 2.113984 0.437767 -5.588607 0.236977 0.378801 0.969362 -3.180477 3.485417 0.047465 0.035008 -0.026414 0.575808 -2.069940 4.149695 0.666591 0.988584 -17.002511 0.000000 0.000000 0.000000 1.880979 -1.110795 1.701471 8.153640 1.793164 -5.079961 -21.259177 10.725524 -41.984534 -7.064327 -21.392672 -6.813309 0.000000 0.000000 0.000000 -1.762963 -0.018361 1.088895 8.691793 -9.802034 -5.940570 13.859205 -12.123833 -43.884853 -1.394374 25.304447 -4.339918 0.000000 0.000000 0.000000 
3.860595 81.720612 15.548142 179.981796 5.548644 179.932741 -4.778395 -0.225963 11.764220 -1.427540 -0.307599 -25.568181 5.565400 5.016995 25.609975 -3.030176 -6.946208 -8.575858 0.000000 0.000000 0.000000 -0.429380 -1.283718 11.436933 2.006687 -2.346055 -19.298698 0.595023 4.384983 26.929225 9.428729 8.745960 -5.661233 0.000000 0.000000 0.000000 2.683749 2.138541 0.501158 -5.544080 0.237329 0.427172 0.944275 -3.169962 3.463915 -0.002606 0.047968 -0.049796 0.604633 -2.030955 4.141971 0.675414 0.932898 -16.935990 0.000000 0.000000 0.000000 1.915115 -1.021001 1.727553 8.158885 1.565438 -4.917073 -21.362675 10.756489 -41.932034 -6.925253 -21.378794 -6.800213 0.000000 0.000000 0.000000 -1.703535 -0.004602 1.045530 8.800479 -9.774804 -5.913610 13.980174 -12.214412 -43.947794 -1.305274 25.480663 -4.315336 0.000000 0.000000 0.000000 
3.878791 81.714958 15.563386 179.986167 5.542235 179.936115 -4.730296 -0.203566 11.753436 -1.473423 -0.302431 -25.607055 5.560849 4.951514 25.665469 -2.959643 -6.896382 -8.573784 0.000000 0.000000 0.000000 -0.390903 -1.186658 11.451632 2.033548 -2.474936 -19.364457 0.596232 4.351388 27.049474 9.451943 8.735790 -5.678138 0.000000 0.000000 0.000000 2.695673 2.167273 0.525730 -5.476925 0.221119 0.449251 0.978046 -3.171816 3.447940 0.044144 0.039318 -0.035802 0.560893 -2.071512 4.069537 0.726136 0.945652 -16.888865 0.000000 0.000000 0.000000 1.890599 -1.173003 1.573000 8.139141 1.470979 -4.882746 -21.458597 10.848452 -41.699729 -6.902091 -21.318125 -6.636104 0.000000 0.000000 0.000000 -1.785423 -0.023370 1.013648 8.765452 -9.740407 -5.840557 14.193605 -12.252036 -44.051015 -1.222208 25.680702 -4.300696 0.000000 0.000000 0.000000 
